<svg xmlns="http://www.w3.org/2000/svg" xmlns:xlink="http://www.w3.org/1999/xlink" id="Layer_1" width="70" height="13" x="0" style="enable-background:new 5 38 70 13" y="0" version="1.1" viewBox="5 38 70 13" xml:space="preserve"><switch><g><g><g><path style="fill:#e01043" d="M9.55,49.741V39.034h2.639c2.268,0,3.321,0.878,3.321,3.158c0,2.282-1.054,3.16-3.321,3.16H11.39 v4.389H9.55L9.55,49.741z M11.39,43.841h0.711c1.201,0,1.571-0.37,1.571-1.646s-0.37-1.646-1.573-1.646h-0.711v3.294 L11.39,43.841L11.39,43.841z"/><path style="fill:#e01043" d="M18.836,49.741h-1.838V39.034h2.579c2.062,0,3.113,0.878,3.113,3.158 c0,1.722-0.667,2.418-1.292,2.701l1.557,4.848h-1.868l-1.305-4.434c-0.237,0.028-0.622,0.045-0.949,0.045v4.389H18.836z M18.836,43.841h0.652c0.994,0,1.363-0.37,1.363-1.646s-0.371-1.646-1.363-1.646h-0.652V43.841z"/><path style="fill:#e01043" d="M24.386,41.631c0-1.511,0.888-2.74,2.817-2.74c1.929,0,2.818,1.229,2.818,2.74v5.517 c0,1.512-0.89,2.741-2.818,2.741c-1.927,0-2.817-1.229-2.817-2.741V41.631z M26.225,47.104c0,0.801,0.237,1.186,0.979,1.186 c0.74,0,0.978-0.385,0.978-1.186v-5.43c0-0.802-0.238-1.188-0.978-1.188c-0.741,0-0.979,0.386-0.979,1.188V47.104z"/><path style="fill:#e01043" d="M31.806,39.038h2.729c1.896,0,2.904,1.035,2.904,3.23v4.24c0,2.195-1.008,3.232-2.904,3.232 h-2.729V39.038z M33.644,48.229h0.638c0.977,0,1.32-0.371,1.32-1.496v-4.688c0-1.127-0.34-1.497-1.32-1.497h-0.638V48.229z"/><path style="fill:#e01043" d="M39.195,39.038h1.839v8.08c0,0.785,0.312,1.171,0.979,1.171s0.975-0.386,0.975-1.171v-8.08h1.839 v8.005c0,1.839-1.063,2.848-2.815,2.848c-1.75,0-2.816-1.009-2.816-2.848V39.038L39.195,39.038z"/><path style="fill:#e01043" d="M50.324,42.608V41.78c0-0.903-0.417-1.289-0.889-1.289c-0.742,0-0.979,0.386-0.979,1.189v5.424 c0,0.803,0.236,1.188,0.979,1.188c0.666,0,0.889-0.385,0.889-1.081v-1.289h1.838v1.229c0,1.512-0.891,2.741-2.727,2.741 c-1.93,0-2.82-1.229-2.82-2.741v-5.519c0-1.513,0.891-2.742,2.82-2.742c1.836,0,2.727,1.334,2.727,2.937v0.785h-1.838V42.608z"/><path style="fill:#e01043" d="M55.102,40.638h-1.779v-1.6h5.396v1.6h-1.779v9.104H55.1L55.102,40.638L55.102,40.638z"/></g><path style="fill:#e01043" d="M5,44.963c0-2.657,0.823-4.616,1.754-6.092c0,0,1.19,0,1.419,0c-0.39,0.575-0.68,1.196-0.955,1.86 c-0.548,1.33-0.826,2.736-0.826,4.229s0.274,2.902,0.826,4.238C7.49,49.858,8.174,51,8.174,51H6.76 C6.114,49.871,5,47.62,5,44.963z"/><path style="fill:#e01043" d="M60.812,51H59.4c0,0,0.681-1.138,0.955-1.802c0.552-1.336,0.824-2.748,0.824-4.238 c0-1.491-0.272-2.898-0.824-4.229c-0.274-0.662-0.565-1.285-0.955-1.861c0.227,0,1.418,0,1.418,0 c0.93,1.477,1.754,3.434,1.754,6.09C62.572,47.618,61.457,49.871,60.812,51z"/><g><path style="fill:#e01043" d="M64.633,44.784h-1.07v-6.239h1.502c1.201,0,1.812,0.507,1.812,1.84 c0,1.002-0.388,1.409-0.749,1.574l0.906,2.825h-1.091l-0.76-2.584c-0.139,0.021-0.363,0.027-0.553,0.027L64.633,44.784 L64.633,44.784z M64.633,41.348h0.379c0.579,0,0.795-0.216,0.795-0.961c0-0.743-0.214-0.961-0.795-0.961h-0.379V41.348z"/><path style="fill:#e01043" d="M67.88,44.784v-6.239h2.872v0.935h-1.8v1.604h1.383v0.935h-1.383v1.834h1.92v0.934H67.88V44.784z"/><path style="fill:#e01043" d="M71.718,38.545h1.591c1.105,0,1.691,0.604,1.691,1.882v2.475c0,1.277-0.585,1.883-1.693,1.883 h-1.589V38.545L71.718,38.545z M72.789,43.903h0.37c0.571,0,0.771-0.217,0.771-0.877v-2.729c0-0.656-0.199-0.873-0.771-0.873 h-0.37V43.903z"/></g></g></g></switch></svg>