<svg xmlns="http://www.w3.org/2000/svg" xmlns:xlink="http://www.w3.org/1999/xlink" width="1267pt" height="370pt" viewBox="0 0 1266.87 369.6"><g id="graph0" class="graph" transform="scale(1 1) rotate(0) translate(4 365.6)"><title>VegaRenderer</title><polygon fill="#fff" stroke="transparent" points="-4 4 -4 -365.6 1262.869 -365.6 1262.869 4 -4 4"/><g id="node1" class="node"><title>VegaRenderer</title><polygon fill="none" stroke="#000" points="0 -146.5 0 -288.1 426.696 -288.1 426.696 -146.5 0 -146.5"/><text x="213.348" y="-271.5" fill="#000" font-family="Times,serif" font-size="14" text-anchor="middle">VegaRenderer</text><polyline fill="none" stroke="#000" points="0 -263.3 426.696 -263.3"/><text x="8" y="-246.7" fill="#000" font-family="Times,serif" font-size="14" text-anchor="start">+ width : NSUInteger</text><text x="8" y="-229.9" fill="#000" font-family="Times,serif" font-size="14" text-anchor="start">+ height : NSUInteger</text><text x="8" y="-213.1" fill="#000" font-family="Times,serif" font-size="14" text-anchor="start">+ CGImage : CGImageRef</text><text x="8" y="-196.3" fill="#000" font-family="Times,serif" font-size="14" text-anchor="start">+ CGLayer : CGLayerRef</text><polyline fill="none" stroke="#000" points="0 -188.1 426.696 -188.1"/><text x="8" y="-171.5" fill="#000" font-family="Times,serif" font-size="14" text-anchor="start">+ initWithSpec: (NSString *)spec</text><text x="213.348" y="-154.7" fill="#000" font-family="Times,serif" font-size="14" text-anchor="middle">+ initWithSpec: (NSString *)spec context:(CGContextRef)parentContext</text></g><g id="node2" class="node"><title>VegaCGCanvas</title><polygon fill="none" stroke="#000" points="469.253 -73.5 469.253 -109.5 575.442 -109.5 575.442 -73.5 469.253 -73.5"/><text x="522.348" y="-87.3" fill="#000" font-family="Times,serif" font-size="14" text-anchor="middle">VegaCGCanvas</text></g><g id="edge1" class="edge"><title>VegaRenderer-&gt;VegaCGCanvas</title><path fill="none" stroke="#000" d="M387.2654,-146.4947C416.028,-134.7849 443.8783,-123.4465 466.7435,-114.1376"/><polygon fill="#000" stroke="#000" points="466.772 -114.126 470.821 -108.159 477.886 -109.601 473.837 -115.568 466.772 -114.126"/></g><g id="node3" class="node"><title>VegaCGContext</title><polygon fill="none" stroke="#000" points="795.692 -.5 795.692 -36.5 905.004 -36.5 905.004 -.5 795.692 -.5"/><text x="850.348" y="-14.3" fill="#000" font-family="Times,serif" font-size="14" text-anchor="middle">VegaCGContext</text></g><g id="edge2" class="edge"><title>VegaCGCanvas-&gt;VegaCGContext</title><path fill="none" stroke="#000" d="M575.7767,-79.6088C632.5327,-66.9771 722.3599,-46.9851 783.7035,-33.3324"/><polygon fill="#000" stroke="#000" points="783.861 -33.297 788.848 -28.09 795.574 -30.691 790.587 -35.898 783.861 -33.297"/></g><g id="node4" class="node"><title>VegaCGLinearGradient</title><polygon fill="none" stroke="#000" points="625.103 -73.5 625.103 -109.5 775.593 -109.5 775.593 -73.5 625.103 -73.5"/><text x="700.348" y="-87.3" fill="#000" font-family="Times,serif" font-size="14" text-anchor="middle">VegaCGLinearGradient</text></g><g id="node5" class="node"><title>VegaCGImage</title><polygon fill="none" stroke="#000" points="825.368 -73.5 825.368 -109.5 925.327 -109.5 925.327 -73.5 825.368 -73.5"/><text x="875.348" y="-87.3" fill="#000" font-family="Times,serif" font-size="14" text-anchor="middle">VegaCGImage</text></g><g id="node6" class="node"><title>VegaCGTextMetrics</title><polygon fill="none" stroke="#000" points="948.649 -73.5 948.649 -109.5 1082.046 -109.5 1082.046 -73.5 948.649 -73.5"/><text x="1015.348" y="-87.3" fill="#000" font-family="Times,serif" font-size="14" text-anchor="middle">VegaCGTextMetrics</text></g><g id="node7" class="node"><title>JSExport</title><polygon fill="none" stroke="#000" stroke-dasharray="5 2" points="841.682 -325.1 841.682 -361.1 909.013 -361.1 909.013 -325.1 841.682 -325.1"/><text x="875.348" y="-338.9" fill="#000" font-family="Times,serif" font-size="14" text-anchor="middle">JSExport</text></g><g id="node8" class="node"><title>VegaCGGradientInterface</title><polygon fill="none" stroke="#000" stroke-dasharray="5 2" points="618.504 -199.3 618.504 -235.3 782.192 -235.3 782.192 -199.3 618.504 -199.3"/><text x="700.348" y="-213.1" fill="#000" font-family="Times,serif" font-size="14" text-anchor="middle">VegaCGGradientInterface</text></g><g id="edge3" class="edge"><title>JSExport-&gt;VegaCGGradientInterface</title><path fill="none" stroke="#000" d="M837.3792,-319.4791C822.7933,-310.1427 806.11,-299.1405 791.3478,-288.6 767.1734,-271.339 740.5359,-250.2055 722.363,-235.4463"/><polygon fill="none" stroke="#000" points="835.837 -322.646 846.154 -325.058 839.593 -316.739 835.837 -322.646"/></g><g id="node9" class="node"><title>VegaCGImageInterface</title><polygon fill="none" stroke="#000" stroke-dasharray="5 2" points="800.503 -199.3 800.503 -235.3 950.193 -235.3 950.193 -199.3 800.503 -199.3"/><text x="875.348" y="-213.1" fill="#000" font-family="Times,serif" font-size="14" text-anchor="middle">VegaCGImageInterface</text></g><g id="edge5" class="edge"><title>JSExport-&gt;VegaCGImageInterface</title><path fill="none" stroke="#000" d="M875.3478,-315.0663C875.3478,-290.8574 875.3478,-256.5755 875.3478,-235.6997"/><polygon fill="none" stroke="#000" points="871.848 -315.076 875.348 -325.076 878.848 -315.076 871.848 -315.076"/></g><g id="node10" class="node"><title>VegaCGTextMetricsInterface</title><polygon fill="none" stroke="#000" stroke-dasharray="5 2" points="967.784 -199.3 967.784 -235.3 1150.912 -235.3 1150.912 -199.3 967.784 -199.3"/><text x="1059.348" y="-213.1" fill="#000" font-family="Times,serif" font-size="14" text-anchor="middle">VegaCGTextMetricsInterface</text></g><g id="edge7" class="edge"><title>JSExport-&gt;VegaCGTextMetricsInterface</title><path fill="none" stroke="#000" d="M912.7234,-319.3481C927.3589,-309.9179 944.2321,-298.8851 959.3478,-288.6 985.2615,-270.9676 1014.3877,-250.0754 1034.4925,-235.4809"/><polygon fill="none" stroke="#000" points="910.459 -316.643 903.936 -324.992 914.241 -322.533 910.459 -316.643"/></g><g id="node11" class="node"><title>VegaCGContextInterface</title><polygon fill="none" stroke="#000" stroke-dasharray="5 2" points="1099.827 -73.5 1099.827 -109.5 1258.869 -109.5 1258.869 -73.5 1099.827 -73.5"/><text x="1179.348" y="-87.3" fill="#000" font-family="Times,serif" font-size="14" text-anchor="middle">VegaCGContextInterface</text></g><g id="edge9" class="edge"><title>JSExport-&gt;VegaCGContextInterface</title><path fill="none" stroke="#000" d="M919.3276,-340.9479C991.1002,-336.4551 1128.615,-323.4248 1160.3478,-288.6 1206.1931,-238.2875 1192.4874,-147.8958 1183.9237,-109.5197"/><polygon fill="none" stroke="#000" points="919.009 -337.461 909.236 -341.55 919.427 -344.448 919.009 -337.461"/></g><g id="node12" class="node"><title>VegaCGCanvasInterface</title><polygon fill="none" stroke="#000" stroke-dasharray="5 2" points="444.388 -199.3 444.388 -235.3 600.308 -235.3 600.308 -199.3 444.388 -199.3"/><text x="522.348" y="-213.1" fill="#000" font-family="Times,serif" font-size="14" text-anchor="middle">VegaCGCanvasInterface</text></g><g id="edge11" class="edge"><title>JSExport-&gt;VegaCGCanvasInterface</title><path fill="none" stroke="#000" d="M831.3479,-340.5607C776.8607,-335.9927 682.3219,-323.3404 609.3478,-288.6 581.8413,-275.5051 555.5519,-251.8932 539.2106,-235.4446"/><polygon fill="none" stroke="#000" points="831.124 -344.054 841.367 -341.347 831.672 -337.075 831.124 -344.054"/></g><g id="edge4" class="edge"><title>VegaCGGradientInterface-&gt;VegaCGLinearGradient</title><path fill="none" stroke="#000" stroke-dasharray="5 2" d="M700.3478,-189.2663C700.3478,-165.0574 700.3478,-130.7755 700.3478,-109.8997"/><polygon fill="none" stroke="#000" points="696.848 -189.276 700.348 -199.276 703.848 -189.276 696.848 -189.276"/></g><g id="edge6" class="edge"><title>VegaCGImageInterface-&gt;VegaCGImage</title><path fill="none" stroke="#000" stroke-dasharray="5 2" d="M875.3478,-189.2663C875.3478,-165.0574 875.3478,-130.7755 875.3478,-109.8997"/><polygon fill="none" stroke="#000" points="871.848 -189.276 875.348 -199.276 878.848 -189.276 871.848 -189.276"/></g><g id="edge8" class="edge"><title>VegaCGTextMetricsInterface-&gt;VegaCGTextMetrics</title><path fill="none" stroke="#000" stroke-dasharray="5 2" d="M1049.6564,-189.5914C1041.183,-165.3652 1029.1176,-130.8691 1021.7833,-109.8997"/><polygon fill="none" stroke="#000" points="1046.438 -190.992 1053.044 -199.276 1053.046 -188.681 1046.438 -190.992"/></g><g id="edge10" class="edge"><title>VegaCGContextInterface-&gt;VegaCGContext</title><path fill="none" stroke="#000" stroke-dasharray="5 2" d="M1089.6358,-71.5943C1030.6216,-58.5 955.293,-41.7857 905.0737,-30.6428"/><polygon fill="none" stroke="#000" points="1089.185 -75.079 1099.706 -73.829 1090.702 -68.246 1089.185 -75.079"/></g><g id="edge12" class="edge"><title>VegaCGCanvasInterface-&gt;VegaCGCanvas</title><path fill="none" stroke="#000" stroke-dasharray="5 2" d="M522.3478,-189.2663C522.3478,-165.0574 522.3478,-130.7755 522.3478,-109.8997"/><polygon fill="none" stroke="#000" points="518.848 -189.276 522.348 -199.276 525.848 -189.276 518.848 -189.276"/></g></g></svg>